{
    "asset" : {
        "generator" : "Khronos glTF Blender I/O v1.6.16",
        "version" : "2.0"
    },
    "scene" : 0,
    "scenes" : [
        {
            "name" : "Scene",
            "nodes" : [
                0
            ]
        }
    ],
    "nodes" : [
        {
            "mesh" : 0,
            "name" : "Plane.001",
            "rotation" : [
                0,
                0,
                -0.7071067690849304,
                0.7071068286895752
            ],
            "scale" : [
                1.9149999618530273,
                1,
                1
            ],
            "translation" : [
                0,
                0.02366696484386921,
                -0.007942034862935543
            ]
        }
    ],
    "materials" : [
        {
            "doubleSided" : true,
            "name" : "Material.001",
            "pbrMetallicRoughness" : {
                "baseColorTexture" : {
                    "index" : 0
                },
                "metallicFactor" : 0,
                "roughnessFactor" : 0.5
            }
        },
        {
            "doubleSided" : true,
            "name" : "Material.002",
            "pbrMetallicRoughness" : {
                "baseColorFactor" : [
                    0.0024829714093357325,
                    0.0024829714093357325,
                    0.0024829714093357325,
                    1
                ],
                "metallicFactor" : 0,
                "roughnessFactor" : 0.5
            }
        },
        {
            "doubleSided" : true,
            "name" : "Material.003",
            "pbrMetallicRoughness" : {
                "baseColorFactor" : [
                    0,
                    0,
                    0,
                    1
                ],
                "metallicFactor" : 0,
                "roughnessFactor" : 0.5
            }
        }
    ],
    "meshes" : [
        {
            "name" : "Plane.008",
            "primitives" : [
                {
                    "attributes" : {
                        "POSITION" : 0,
                        "NORMAL" : 1,
                        "TEXCOORD_0" : 2
                    },
                    "indices" : 3,
                    "material" : 0
                },
                {
                    "attributes" : {
                        "POSITION" : 4,
                        "NORMAL" : 5,
                        "TEXCOORD_0" : 6
                    },
                    "indices" : 7,
                    "material" : 1
                },
                {
                    "attributes" : {
                        "POSITION" : 8,
                        "NORMAL" : 9,
                        "TEXCOORD_0" : 10
                    },
                    "indices" : 11,
                    "material" : 2
                }
            ]
        }
    ],
    "textures" : [
        {
            "sampler" : 0,
            "source" : 0
        }
    ],
    "images" : [
        {
            "mimeType" : "image/jpeg",
            "name" : "iPhone+12+Pro+Max",
            "uri" : "iPhone12ProMax.jpg"
        }
    ],
    "accessors" : [
        {
            "bufferView" : 0,
            "componentType" : 5126,
            "count" : 76,
            "max" : [
                0.967003345489502,
                0.1568174809217453,
                0.9141165614128113
            ],
            "min" : [
                -0.8450523614883423,
                0.1568174809217453,
                -0.897939145565033
            ],
            "type" : "VEC3"
        },
        {
            "bufferView" : 1,
            "componentType" : 5126,
            "count" : 76,
            "type" : "VEC3"
        },
        {
            "bufferView" : 2,
            "componentType" : 5126,
            "count" : 76,
            "type" : "VEC2"
        },
        {
            "bufferView" : 3,
            "componentType" : 5123,
            "count" : 222,
            "type" : "SCALAR"
        },
        {
            "bufferView" : 4,
            "componentType" : 5126,
            "count" : 684,
            "max" : [
                1.0123586654663086,
                0.1568174660205841,
                1.0079419612884521
            ],
            "min" : [
                -0.9876412153244019,
                -1.78680614748572e-09,
                -0.9920579195022583
            ],
            "type" : "VEC3"
        },
        {
            "bufferView" : 5,
            "componentType" : 5126,
            "count" : 684,
            "type" : "VEC3"
        },
        {
            "bufferView" : 6,
            "componentType" : 5126,
            "count" : 684,
            "type" : "VEC2"
        },
        {
            "bufferView" : 7,
            "componentType" : 5123,
            "count" : 1134,
            "type" : "SCALAR"
        },
        {
            "bufferView" : 8,
            "componentType" : 5126,
            "count" : 72,
            "max" : [
                -0.1305031031370163,
                0.127064511179924,
                -0.9684827327728271
            ],
            "min" : [
                -0.7576985359191895,
                0.03474291414022446,
                -1.0192893743515015
            ],
            "type" : "VEC3"
        },
        {
            "bufferView" : 9,
            "componentType" : 5126,
            "count" : 72,
            "type" : "VEC3"
        },
        {
            "bufferView" : 10,
            "componentType" : 5126,
            "count" : 72,
            "type" : "VEC2"
        },
        {
            "bufferView" : 11,
            "componentType" : 5123,
            "count" : 108,
            "type" : "SCALAR"
        }
    ],
    "bufferViews" : [
        {
            "buffer" : 0,
            "byteLength" : 912,
            "byteOffset" : 0
        },
        {
            "buffer" : 0,
            "byteLength" : 912,
            "byteOffset" : 912
        },
        {
            "buffer" : 0,
            "byteLength" : 608,
            "byteOffset" : 1824
        },
        {
            "buffer" : 0,
            "byteLength" : 444,
            "byteOffset" : 2432
        },
        {
            "buffer" : 0,
            "byteLength" : 8208,
            "byteOffset" : 2876
        },
        {
            "buffer" : 0,
            "byteLength" : 8208,
            "byteOffset" : 11084
        },
        {
            "buffer" : 0,
            "byteLength" : 5472,
            "byteOffset" : 19292
        },
        {
            "buffer" : 0,
            "byteLength" : 2268,
            "byteOffset" : 24764
        },
        {
            "buffer" : 0,
            "byteLength" : 864,
            "byteOffset" : 27032
        },
        {
            "buffer" : 0,
            "byteLength" : 864,
            "byteOffset" : 27896
        },
        {
            "buffer" : 0,
            "byteLength" : 576,
            "byteOffset" : 28760
        },
        {
            "buffer" : 0,
            "byteLength" : 216,
            "byteOffset" : 29336
        }
    ],
    "samplers" : [
        {
            "magFilter" : 9729,
            "minFilter" : 9987
        }
    ],
    "buffers" : [
        {
            "byteLength" : 29552,
            "uri" : "untitled.bin"
        }
    ]
}
